Run_20001
nRows=4
nColumns=164

# SIMM Motion File Header:
name Run_20001
datacolumns 164
datarows 4
otherdata 1
range 4.75000000 4.77500000
endheader
time	pelvis_tilt	pelvis_list	pelvis_rotation	pelvis_tx	pelvis_ty	pelvis_tz	hip_flexion_r	hip_adduction_r	hip_rotation_r	knee_angle_r	ankle_angle_r	hip_flexion_l	hip_adduction_l	hip_rotation_l	knee_angle_l	ankle_angle_l	lumbar_extension	lumbar_bending	lumbar_rotation	arm_flex_r	arm_add_r	arm_rot_r	elbow_flex_r	pro_sup_r	arm_flex_l	arm_add_l	arm_rot_l	elbow_flex_l	pro_sup_l	subtalar_angle_r	mtp_angle_r	subtalar_angle_l	mtp_angle_l	wrist_flex_r	wrist_dev_r	wrist_flex_l	wrist_dev_l	LASI_tx	LASI_ty	LASI_tz	RASI_tx	RASI_ty	RASI_tz	LPSI_tx	LPSI_ty	LPSI_tz	RPSI_tx	RPSI_ty	RPSI_tz	RTH1_tx	RTH1_ty	RTH1_tz	RTH2_tx	RTH2_ty	RTH2_tz	RTH3_tx	RTH3_ty	RTH3_tz	LTH1_tx	LTH1_ty	LTH1_tz	LTH2_tx	LTH2_ty	LTH2_tz	LTH3_tx	LTH3_ty	LTH3_tz	RTB1_tx	RTB1_ty	RTB1_tz	RTB2_tx	RTB2_ty	RTB2_tz	RTB3_tx	RTB3_ty	RTB3_tz	LTB1_tx	LTB1_ty	LTB1_tz	LTB2_tx	LTB2_ty	LTB2_tz	LTB3_tx	LTB3_ty	LTB3_tz	RCAL_tx	RCAL_ty	RCAL_tz	RTOE_tx	RTOE_ty	RTOE_tz	RMT5_tx	RMT5_ty	RMT5_tz	LCAL_tx	LCAL_ty	LCAL_tz	LTOE_tx	LTOE_ty	LTOE_tz	LMT5_tx	LMT5_ty	LMT5_tz	LACR_tx	LACR_ty	LACR_tz	RACR_tx	RACR_ty	RACR_tz	CLAV_tx	CLAV_ty	CLAV_tz	C7_tx	C7_ty	C7_tz	RUA1_tx	RUA1_ty	RUA1_tz	RUA2_tx	RUA2_ty	RUA2_tz	RUA3_tx	RUA3_ty	RUA3_tz	RLEL_tx	RLEL_ty	RLEL_tz	RMEL_tx	RMEL_ty	RMEL_tz	LUA1_tx	LUA1_ty	LUA1_tz	LUA2_tx	LUA2_ty	LUA2_tz	LUA3_tx	LUA3_ty	LUA3_tz	LLEL_tx	LLEL_ty	LLEL_tz	LMEL_tx	LMEL_ty	LMEL_tz	RFAsuperior_tx	RFAsuperior_ty	RFAsuperior_tz	RFAradius_tx	RFAradius_ty	RFAradius_tz	RFAulna_tx	RFAulna_ty	RFAulna_tz	LFAsuperior_tx	LFAsuperior_ty	LFAsuperior_tz	LFAradius_tx	LFAradius_ty	LFAradius_tz	LFAulna_tx	LFAulna_ty	LFAulna_tz
      4.75000000	      1.68138021	      0.29076196	     -1.43934595	      0.44612134	      0.98891032	     -0.33361422	      0.37303878	     -1.96566936	     -3.26463986	    -70.23071212	     -7.66905949	     16.01140251	      4.17686786	     -0.20437040	    -23.96023504	      5.50477670	    -14.87317988	     -2.78046917	      3.82538959	    -13.65511121	    -32.68733224	     23.47118055	    129.68510907	     79.57778534	    -25.74131506	    -31.38722404	     -3.93079839	    134.93536591	     91.73177861	      0.00000000	      0.00000000	      0.00000000	      0.00000000	      0.00000000	      0.00000000	      0.00000000	      0.00000000	      0.45717265	      1.01581760	     -0.45099059	      0.44548130	      1.01741533	     -0.21016790	      0.28419190	      1.02960173	     -0.38225164	      0.28266233	      1.03756703	     -0.29341816	      0.40514614	      0.82178866	     -0.16896600	      0.46149492	      0.69953417	     -0.18331614	      0.37823850	      0.58068068	     -0.17839824	      0.44261297	      0.86316612	     -0.50051314	      0.52216290	      0.76582272	     -0.47910694	      0.48167188	      0.61544675	     -0.46890114	      0.29386844	      0.40014854	     -0.23571674	      0.21199290	      0.41404762	     -0.19247554	      0.12305886	      0.34714851	     -0.26202723	      0.55077185	      0.38289066	     -0.38806596	      0.49828230	      0.27880529	     -0.43538552	      0.50567316	      0.19919749	     -0.36049928	     -0.02831157	      0.40364613	     -0.29551307	      0.01309474	      0.19115040	     -0.26717240	     -0.03144013	      0.22780864	     -0.18595983	      0.37800369	      0.09701913	     -0.36201643	      0.59565822	      0.07908256	     -0.35202620	      0.57043136	      0.05987031	     -0.44054416	      0.42040506	      1.45606998	     -0.53661672	      0.44778155	      1.46113520	     -0.16027176	      0.52397410	      1.42335435	     -0.32989137	      0.39059278	      1.51290526	     -0.34947246	      0.42690970	      1.36248910	     -0.08614614	      0.44043769	      1.29185428	     -0.08319316	      0.35085670	      1.29644661	     -0.02311896	      0.37567096	      1.20953863	      0.00112642	      0.29622821	      1.19503206	     -0.04479407	      0.37652387	      1.39975471	     -0.59646459	      0.29864060	      1.35178464	     -0.58578498	      0.33956941	      1.31679299	     -0.64123326	      0.29005395	      1.22372152	     -0.68518203	      0.24187382	      1.18644624	     -0.61475336	      0.43985387	      1.20202557	     -0.05245093	      0.51501733	      1.20327976	     -0.20159821	      0.50593958	      1.13828748	     -0.18841570	      0.36061075	      1.22324161	     -0.66995978	      0.49280319	      1.21854839	     -0.55516611	      0.49643001	      1.15940613	     -0.58221107
      4.75833300	      2.20354142	      0.90756321	     -0.94816218	      0.44426331	      0.98280211	     -0.33497832	      1.89446348	     -2.93756906	     -3.40217485	    -74.85916550	     -7.16002551	     16.23621526	      5.16763892	      0.12096896	    -27.32849170	      8.55045364	    -15.76546755	     -3.44094868	      2.69456623	    -14.11608545	    -32.43034096	     23.03107411	    128.92588776	     79.60084964	    -24.02420538	    -32.53032536	     -3.80541637	    134.25788464	     91.29684552	      0.00000000	      0.00000000	      0.00000000	      0.00000000	      0.00000000	      0.00000000	      0.00000000	      0.00000000	      0.45568619	      1.00853706	     -0.45191070	      0.44522188	      1.01035013	     -0.21020940	      0.28103521	      1.02020009	     -0.38217796	      0.28006548	      1.02707998	     -0.29354148	      0.40915248	      0.81511417	     -0.16972902	      0.46893250	      0.69527386	     -0.18331628	      0.38968004	      0.57395892	     -0.17731053	      0.43964283	      0.85827085	     -0.50103151	      0.52074504	      0.76150633	     -0.47887400	      0.48282908	      0.61182920	     -0.47075547	      0.30358427	      0.39798551	     -0.23461319	      0.22244210	      0.41487065	     -0.19117755	      0.13078196	      0.35157861	     -0.26013929	      0.54635446	      0.37884537	     -0.38731519	      0.49073944	      0.27685495	     -0.43514975	      0.49345734	      0.19765349	     -0.35927195	     -0.01704975	      0.41404104	     -0.29512298	      0.01465429	      0.20054040	     -0.26292204	     -0.02777214	      0.24089854	     -0.18226414	      0.36182790	      0.09753861	     -0.36185197	      0.57932246	      0.07915897	     -0.35095382	      0.55394850	      0.06039878	     -0.43993435	      0.42247663	      1.44846601	     -0.53822506	      0.44545932	      1.45503127	     -0.16089864	      0.52530961	      1.41558171	     -0.32944341	      0.39000232	      1.50559342	     -0.35170517	      0.42298809	      1.35595875	     -0.08764646	      0.43579751	      1.28523482	     -0.08415684	      0.34607108	      1.29129486	     -0.02474120	      0.36958473	      1.20430828	      0.00039588	      0.29060449	      1.19081794	     -0.04656897	      0.38016521	      1.39011709	     -0.59817203	      0.30248654	      1.34138003	     -0.58973432	      0.34527785	      1.30738709	     -0.64460807	      0.29804744	      1.21429064	     -0.69024526	      0.24973796	      1.17591725	     -0.62101396	      0.43424240	      1.19444219	     -0.05253615	      0.51222832	      1.19238280	     -0.19987582	      0.50182828	      1.12780019	     -0.18562317	      0.36832956	      1.21388828	     -0.67429443	      0.49906574	      1.20957309	     -0.55744221	      0.50379109	      1.15064269	     -0.58506800
      4.76666700	      2.67565694	      1.65321445	     -0.36046312	      0.44204466	      0.97695111	     -0.33637408	      3.51341258	     -4.02061035	     -3.48785130	    -79.25640857	     -6.65729799	     16.57572669	      6.24397649	      0.35827981	    -30.72666934	     10.96016111	    -16.64499743	     -4.19837134	      1.38522302	    -14.54113147	    -32.03085796	     22.50541837	    127.86212424	     79.75193934	    -22.09088125	    -33.70289303	     -3.50720461	    133.35813128	     90.98233786	      0.00000000	      0.00000000	      0.00000000	      0.00000000	      0.00000000	      0.00000000	      0.00000000	      0.00000000	      0.45393743	      1.00181900	     -0.45345003	      0.44465991	      1.00295328	     -0.21033421	      0.27773924	      1.01134541	     -0.38117952	      0.27703337	      1.01666187	     -0.29331853	      0.41317680	      0.80923457	     -0.17046777	      0.47610029	      0.69202444	     -0.18351287	      0.40106922	      0.56819010	     -0.17669488	      0.43608117	      0.85472147	     -0.50191251	      0.51870371	      0.75843524	     -0.47921164	      0.48403655	      0.60920674	     -0.47298747	      0.31427925	      0.39641373	     -0.23390214	      0.23390379	      0.41555985	     -0.18994353	      0.13979155	      0.35568041	     -0.25815707	      0.54108897	      0.37658775	     -0.38677167	      0.48341006	      0.27656189	     -0.43564430	      0.48187902	      0.19740680	     -0.35914435	     -0.00474431	      0.42314627	     -0.29415555	      0.01844571	      0.20922672	     -0.25869591	     -0.02144623	      0.25277180	     -0.17839589	      0.34612415	      0.09822376	     -0.36185409	      0.56330265	      0.07872832	     -0.35077014	      0.53773146	      0.06057310	     -0.43977455	      0.42458015	      1.44104672	     -0.53999892	      0.44287902	      1.44924397	     -0.16126264	      0.52655720	      1.40825039	     -0.32853215	      0.38959618	      1.49889615	     -0.35387652	      0.41877729	      1.34958069	     -0.08905060	      0.43052728	      1.27874616	     -0.08531909	      0.34063639	      1.28627212	     -0.02667813	      0.36303946	      1.19932091	     -0.00058609	      0.28487246	      1.18638205	     -0.04863972	      0.38410328	      1.38017752	     -0.59990946	      0.30657209	      1.33070150	     -0.59360060	      0.35141895	      1.29782978	     -0.64789089	      0.30670490	      1.20469098	     -0.69509523	      0.25816312	      1.16523626	     -0.62702283	      0.42819204	      1.18655535	     -0.05264051	      0.50937608	      1.18067321	     -0.19778963	      0.49752560	      1.11665874	     -0.18222091	      0.37672018	      1.20413326	     -0.67833885	      0.50597155	      1.20022149	     -0.55907625	      0.51172723	      1.14143573	     -0.58751788
      4.77500000	      2.94683938	      2.45000873	      0.25973209	      0.43972129	      0.97154537	     -0.33742812	      5.36820962	     -5.09064055	     -3.44751110	    -83.32141637	     -6.17276957	     16.91963163	      7.27770390	      0.46067300	    -33.68145188	     12.61778943	    -17.29657167	     -5.01246385	      0.00461983	    -15.00401312	    -31.41813059	     21.87228168	    126.40479362	     80.00589419	    -19.96548265	    -34.87817510	     -2.98155687	    132.16313833	     90.80531386	      0.00000000	      0.00000000	      0.00000000	      0.00000000	      0.00000000	      0.00000000	      0.00000000	      0.00000000	      0.45220403	      0.99602556	     -0.45546542	      0.44368850	      0.99559997	     -0.21023615	      0.27473917	      1.00417887	     -0.37897636	      0.27401398	      1.00765380	     -0.29236001	      0.41706434	      0.80455038	     -0.17095838	      0.48294026	      0.68984155	     -0.18381747	      0.41231749	      0.56381247	     -0.17637534	      0.43238801	      0.85212033	     -0.50285538	      0.51583659	      0.75615323	     -0.48010347	      0.48388412	      0.60691318	     -0.47526345	      0.32596263	      0.39543031	     -0.23345496	      0.24628974	      0.41624194	     -0.18875451	      0.15010620	      0.35955503	     -0.25627920	      0.53475314	      0.37511790	     -0.38672082	      0.47572653	      0.27642539	     -0.43628020	      0.47055857	      0.19727014	     -0.35972292	      0.00819165	      0.43094390	     -0.29252737	      0.02435974	      0.21686667	     -0.25439664	     -0.01246214	      0.26295673	     -0.17443703	      0.33073783	      0.09904846	     -0.36181359	      0.54738419	      0.07733043	     -0.35128764	      0.52166667	      0.06020373	     -0.43998960	      0.42662035	      1.43396632	     -0.54190562	      0.44007853	      1.44405801	     -0.16144613	      0.52737294	      1.40182115	     -0.32725773	      0.38952054	      1.49327545	     -0.35589642	      0.41438671	      1.34384302	     -0.09029130	      0.42460266	      1.27287124	     -0.08673324	      0.33448122	      1.28176468	     -0.02908469	      0.35603107	      1.19483999	     -0.00189012	      0.27918593	      1.18197163	     -0.05114736	      0.38819979	      1.37040495	     -0.60172540	      0.31098500	      1.32005216	     -0.59722728	      0.35797423	      1.28845922	     -0.65082826	      0.31613228	      1.19523201	     -0.69952545	      0.26714388	      1.15457506	     -0.63266545	      0.42181519	      1.17888236	     -0.05252132	      0.50646706	      1.16842232	     -0.19523507	      0.49292755	      1.10502343	     -0.17821963	      0.38587983	      1.19440412	     -0.68171074	      0.51353428	      1.19067464	     -0.55997958	      0.52021597	      1.13204678	     -0.58941988
